<?xml version="1.0" standalone="no"?>
<!DOCTYPE svg PUBLIC "-//W3C//DTD SVG 20010904//EN"
 "http://www.w3.org/TR/2001/REC-SVG-20010904/DTD/svg10.dtd">
<svg version="1.0" xmlns="http://www.w3.org/2000/svg"
 width="865.000000pt" height="865.000000pt" viewBox="0 0 865.000000 865.000000"
 preserveAspectRatio="xMidYMid meet">
<metadata>
Created by potrace 1.14, written by Peter Selinger 2001-2017
</metadata>
<g transform="translate(0.000000,865.000000) scale(0.100000,-0.100000)"
fill="#000000" stroke="none">
<path d="M3360 8597 c-6 -120 -4 -386 3 -436 11 -83 18 -101 36 -102 9 0 39
-2 66 -4 76 -5 358 -18 376 -17 18 1 46 -24 192 -165 54 -53 102 -106 106
-117 5 -12 8 -124 7 -251 -2 -255 -14 -330 -67 -414 -87 -137 -216 -180 -522
-176 -295 5 -559 5 -602 0 -96 -11 -199 -26 -202 -29 -2 -2 -5 -29 -8 -62 -3
-32 -8 -79 -10 -104 -18 -173 -25 -632 -12 -785 7 -83 32 -228 42 -245 5 -7
43 -17 132 -34 85 -17 441 -23 618 -12 28 2 122 7 211 10 l161 7 79 -82 c111
-116 136 -143 157 -167 17 -19 19 -47 22 -348 3 -281 1 -333 -12 -367 -31 -76
-141 -195 -255 -274 -44 -30 -14 -27 -403 -38 -338 -10 -539 -18 -675 -30 -25
-2 -88 -7 -140 -10 -52 -4 -102 -9 -110 -10 -8 -2 -49 -6 -90 -10 -41 -3 -86
-8 -100 -10 -14 -2 -52 -6 -85 -10 -33 -4 -71 -8 -85 -10 -14 -3 -43 -7 -65
-10 -22 -3 -96 -15 -165 -27 -69 -11 -134 -22 -145 -23 -46 -7 -188 -39 -293
-66 -661 -172 -758 -417 -257 -646 151 -69 444 -161 630 -197 11 -2 54 -11 95
-19 41 -9 86 -18 100 -20 83 -16 150 -27 185 -32 23 -3 50 -7 60 -9 11 -2 63
-9 115 -15 52 -7 109 -14 125 -16 17 -2 57 -7 90 -10 33 -3 76 -8 95 -10 19
-2 80 -7 135 -11 55 -3 116 -8 135 -10 225 -23 969 -23 1315 0 128 9 232 17
255 21 14 2 65 7 114 10 49 3 92 8 95 9 3 2 40 7 81 11 41 4 77 8 80 10 3 2
30 6 60 9 30 3 64 8 75 10 11 2 42 7 69 10 27 4 52 9 55 10 3 2 29 7 56 10 60
8 340 69 445 97 335 90 598 222 670 336 94 148 -33 280 -380 397 -74 25 -146
47 -160 50 -14 2 -62 14 -107 25 -88 23 -299 65 -373 75 -25 3 -54 8 -65 10
-11 2 -40 7 -65 11 -25 4 -54 9 -65 11 -78 15 -390 51 -510 60 -44 3 -93 7
-110 10 -37 5 -331 18 -402 18 -29 0 -53 2 -53 4 0 3 30 42 67 87 l67 83 190
-4 c105 -2 211 -6 236 -9 25 -2 93 -5 151 -6 185 -2 238 42 264 216 7 45 7
353 0 460 -2 39 -7 113 -10 165 -3 52 -8 96 -10 98 -2 2 -149 5 -327 7 -178 2
-345 6 -373 10 -75 10 -138 50 -250 156 l-100 97 -1 83 c-1 79 -13 607 -19
857 l-2 113 124 129 125 129 251 -4 c319 -5 407 9 438 67 23 43 10 690 -14
714 -2 2 -93 6 -203 9 -388 10 -430 15 -489 60 -16 13 -80 73 -141 133 l-112
110 -1 243 c-1 134 -3 244 -4 245 -1 2 -138 5 -303 8 l-301 6 -3 -53z"/>
<path d="M2924 7824 c1 -147 3 -174 16 -175 163 -6 350 -3 351 6 2 24 -1 308
-3 310 -3 3 -65 9 -203 20 -38 4 -91 8 -116 10 l-45 4 0 -175z"/>
<path d="M2143 7592 l-93 -3 -1 -142 c0 -78 -2 -213 -4 -299 -2 -87 0 -158 4
-159 21 -3 583 -13 606 -10 7 1 10 108 10 309 l0 307 -215 0 c-118 0 -257 -1
-307 -3z"/>
<path d="M4829 6442 c-63 -5 -71 -24 -84 -192 -3 -41 -8 -87 -11 -102 -3 -14
-2 -28 3 -31 4 -3 78 -8 163 -12 85 -4 159 -8 165 -8 8 -2 9 44 6 288 l-1 61
-102 -1 c-57 0 -119 -1 -139 -3z"/>
<path d="M1289 5937 c0 -139 -1 -267 -2 -285 l-2 -32 283 0 282 0 1 73 c0 39
3 165 5 280 l4 207 -117 1 c-65 0 -193 2 -285 4 l-168 3 -1 -251z"/>
<path d="M5177 6033 c-3 -5 -8 -62 -11 -128 -7 -116 -10 -165 -21 -295 l-5
-60 250 2 250 3 1 50 c6 227 5 263 -12 324 -9 35 -23 69 -30 76 -9 9 -58 15
-139 20 -69 3 -160 8 -202 11 -42 2 -79 1 -81 -3z"/>
<path d="M1945 5496 c-38 -215 -39 -469 -3 -658 l11 -58 348 0 349 0 1 38 c0
20 2 118 4 217 2 99 4 250 6 335 l3 155 -357 0 -357 1 -5 -30z"/>
<path d="M1477 4725 c-2 -5 -4 -94 -6 -197 l-2 -188 198 0 198 0 0 190 c-1
104 -5 193 -9 197 -12 12 -375 10 -379 -2z"/>
<path d="M495 3487 c-23 -91 -28 -365 -10 -482 7 -46 32 -186 40 -230 83 -428
336 -1024 606 -1428 39 -58 161 -227 184 -254 5 -7 15 -18 20 -25 9 -13 107
-128 130 -154 75 -86 238 -243 325 -314 53 -43 64 -52 93 -76 27 -22 203 -142
247 -168 25 -15 108 -58 185 -96 171 -84 328 -138 510 -176 55 -12 263 -41
345 -49 30 -3 69 -8 85 -10 189 -26 834 -26 971 -1 10 2 48 7 84 11 36 4 74 9
85 12 11 2 29 6 40 7 142 23 341 75 485 129 194 71 302 132 549 309 133 95
196 119 471 172 70 14 91 19 165 37 156 40 417 123 510 164 17 7 71 30 120 51
195 83 422 208 600 331 259 178 427 343 633 618 42 56 121 214 160 320 41 112
60 305 40 420 -36 208 -171 372 -406 490 -57 28 -183 75 -207 76 -2 0 -19 5
-37 10 -54 16 -82 22 -173 35 -27 3 -59 8 -70 11 -11 2 -94 6 -185 10 -91 3
-166 7 -168 8 -2 2 -4 39 -6 82 -1 64 -6 85 -25 111 -12 18 -28 32 -36 32 -39
0 -142 -43 -211 -89 -101 -67 -229 -128 -374 -179 -101 -35 -298 -92 -370
-106 -14 -3 -92 -19 -175 -36 -82 -17 -163 -33 -180 -35 -47 -6 -105 -15 -165
-25 -30 -6 -75 -12 -100 -15 -25 -3 -61 -7 -80 -10 -19 -3 -57 -7 -85 -10 -27
-3 -86 -10 -130 -15 -44 -5 -114 -12 -155 -15 -41 -4 -91 -8 -110 -10 -19 -2
-82 -6 -140 -10 -58 -4 -123 -8 -145 -10 -315 -25 -1153 -26 -1555 0 -118 7
-254 17 -290 20 -19 2 -66 6 -105 10 -123 11 -349 38 -415 50 -14 2 -47 7 -75
10 -27 3 -93 15 -147 25 -54 11 -111 22 -126 25 -22 4 -209 47 -262 60 -218
54 -504 167 -712 281 -56 31 -121 67 -143 79 -22 12 -55 27 -72 33 -30 10 -33
9 -38 -11z m6724 -827 c111 -21 223 -91 281 -176 116 -167 96 -377 -57 -607
-69 -104 -248 -281 -398 -395 -152 -114 -434 -262 -628 -328 -134 -46 -327
-90 -327 -74 0 15 93 168 199 327 211 318 274 437 357 678 19 55 39 109 43
120 66 156 90 208 117 251 108 172 239 237 413 204z"/>
</g>
</svg>
